# Blender v2.83.5 OBJ File: ''
# www.blender.org
o Cube
v 1.000000 1.000000 -1.000000
v 1.000000 -1.000000 -1.000000
v 1.000000 1.000000 1.000000
v 1.000000 -1.000000 1.000000
v -1.000000 1.000000 -1.000000
v -1.000000 -1.000000 -1.000000
v -1.000000 1.000000 1.000000
v -1.000000 -1.000000 1.000000
v 0.990382 -0.992990 1.004412
v -1.017542 1.008383 1.008619
v 1.000000 0.973263 -1.000000
v -1.000000 -1.000000 -0.993870
v -0.001535 -1.000000 0.001535
vt 0.625000 0.500000
vt 0.875000 0.500000
vt 0.875000 0.750000
vt 0.375000 0.750000
vt 0.625000 1.000000
vt 0.375000 1.000000
vt 0.625000 0.000000
vt 0.375000 0.249234
vt 0.375000 0.000000
vt 0.125000 0.500000
vt 0.249808 0.625192
vt 0.125000 0.500766
vt 0.621658 0.500000
vt 0.375000 0.500000
vt 0.625000 0.250000
vt 0.375000 0.250000
vt 0.625000 0.750000
vt 0.125000 0.750000
vn 0.0000 1.0000 0.0000
vn 0.0000 0.0000 1.0000
vn -1.0000 0.0000 0.0000
vn 0.0000 -1.0000 0.0000
vn 1.0000 0.0000 0.0000
vn 0.0000 0.0000 -1.0000
s off
f 1/1/1 5/2/1 7/3/1
f 4/4/2 7/5/2 8/6/2
f 7/7/3 12/8/3 8/9/3
f 6/10/4 13/11/4 12/12/4
f 11/13/5 4/4/5 2/14/5
f 5/15/6 11/13/6 6/16/6
f 4/4/5 1/1/5 3/17/5
f 7/5/2 4/4/2 3/17/2
f 7/3/1 3/17/1 1/1/1
f 6/16/3 7/7/3 5/15/3
f 11/13/6 2/14/6 6/16/6
f 12/12/4 13/11/4 8/18/4
f 8/18/4 13/11/4 4/4/4
f 13/11/4 2/14/4 4/4/4
f 7/7/3 6/16/3 12/8/3
f 6/10/4 2/14/4 13/11/4
f 11/13/5 1/1/5 4/4/5
f 5/15/6 1/1/6 11/13/6
l 4 9
l 7 10
